Coordinates
version=1
nRows=21
nColumns=12
inDegrees=yes

Units are S.I. units (second, meters, Newtons, ...)
Angles are in degrees

endheader
time	SC_y	SC_z	SC_x	AC_y	AC_z	AC_x	GH_y	GH_z	GH_yy	EL_x	PS_y
       0.0              -24.96          4.436           9.87           36.0         -14.41          15.54         -164.1          56.97         -113.4          120.9          40.75
   0.01514              -24.96          4.437           9.88           36.0          -14.4          15.53         -164.1          56.96         -113.4          120.9          40.76
   0.03027              -24.96          4.438          9.891           36.0          -14.4          15.53         -164.1          56.95         -113.4          120.9          40.77
   0.04541              -24.96          4.439          9.903          36.01          -14.4          15.52         -164.1          56.94         -113.4          120.9          40.78
   0.06055              -24.96           4.44          9.915          36.01         -14.39          15.52         -164.0          56.93         -113.4          120.9          40.79
   0.07569              -24.96          4.442          9.928          36.01         -14.39          15.51         -164.0          56.92         -113.4          120.9          40.81
   0.09082              -24.96          4.443          9.942          36.01         -14.38          15.51         -164.0          56.91         -113.4          120.9          40.82
     0.106              -24.96          4.445          9.957          36.01         -14.38           15.5         -164.0           56.9         -113.4          120.9          40.84
    0.1211              -24.96          4.446          9.973          36.01         -14.37          15.49         -164.0          56.89         -113.4          120.8          40.85
    0.1362              -24.96          4.448           9.99          36.01         -14.37          15.48         -163.9          56.88         -113.4          120.8          40.87
    0.1514              -24.96           4.45          10.01          36.02         -14.36          15.48         -163.9          56.87         -113.4          120.8          40.89
    0.1665              -24.96          4.452          10.03          36.02         -14.36          15.47         -163.9          56.85         -113.4          120.8          40.91
    0.1816              -24.96          4.454          10.05          36.02         -14.35          15.46         -163.9          56.84         -113.4          120.8          40.93
    0.1968              -24.96          4.457          10.07          36.02         -14.34          15.45         -163.8          56.82         -113.4          120.7          40.95
    0.2119              -24.96          4.459           10.1          36.03         -14.33          15.44         -163.8           56.8         -113.4          120.7          40.98
    0.2271              -24.96          4.462          10.12          36.03         -14.33          15.42         -163.8          56.78         -113.4          120.7           41.0
    0.2422              -24.96          4.465          10.15          36.03         -14.32          15.41         -163.7          56.76         -113.4          120.6          41.03
    0.2573              -24.96          4.468          10.19          36.03         -14.31           15.4         -163.7          56.74         -113.4          120.6          41.06
    0.2725              -24.96          4.472          10.22          36.04         -14.29          15.38         -163.6          56.71         -113.4          120.6           41.1
    0.2876              -24.96          4.476          10.26          36.04         -14.28          15.36         -163.6          56.68         -113.4          120.5          41.14
    0.3027              -24.96           4.48           10.3          36.05         -14.27          15.34         -163.5          56.65         -113.5          120.5          41.18
